<svg width="341" height="377" viewBox="0 0 341 377" fill="none" xmlns="http://www.w3.org/2000/svg">
<path d="M334.972 156.019C330.972 194.419 336.638 230.352 339.972 243.519L334.972 238.519C322.172 225.719 319.305 194.185 319.472 180.019C319.872 154.019 309.972 128.852 304.972 119.519C293.772 95.5186 268.972 87.8519 257.972 87.0186C223.972 82.6186 208.472 101.519 204.972 111.519C208.972 103.119 226.638 97.3519 234.972 95.5186C279.372 93.1186 300.138 122.519 304.972 137.519C308.972 144.719 309.305 178.852 308.972 195.019C306.572 213.819 311.638 229.852 314.472 235.519C296.072 221.919 293.805 191.519 294.972 178.019C297.372 138.819 271.305 120.685 257.972 116.519C233.572 108.519 215.805 116.852 209.972 122.019C236.772 114.419 257.805 126.519 264.972 133.519C290.472 158.519 278.652 189.519 278.972 191.519C270.172 133.119 223.972 136.185 201.972 145.019C234.372 143.419 249.472 155.019 252.972 161.019C275.372 184.619 266.638 213.519 259.472 225.019C256.272 195.019 232.805 190.185 221.472 191.519C237.072 200.719 237.972 219.019 236.472 227.019C221.272 200.619 196.805 206.352 186.472 212.519C184.072 212.519 177.138 207.852 173.972 205.519C179.572 219.919 203.972 228.852 215.472 231.519C180.672 237.519 149.638 225.352 138.472 218.519C150.472 235.319 193.805 243.185 213.972 245.019C172.372 257.019 129.972 241.019 113.972 231.519C141.972 263.919 192.305 259.019 213.972 252.519C167.572 282.519 123.972 270.019 107.972 260.019C77.5717 244.306 63.9717 217.805 60.9717 206.519C56.5717 182.488 68.805 169.173 75.4717 165.519C45.4717 175.119 49.305 202.519 54.9717 215.019C68.5717 251.819 102.972 270.019 118.472 274.519C159.672 287.719 195.972 273.352 208.972 264.519C198.572 279.719 174.972 291.185 164.472 295.019C163.972 298.019 164.972 301.019 164.972 302.019V303.019C162.972 303.019 160.472 304.352 159.472 305.019C158.672 305.819 159.138 309.019 159.472 310.519C158.272 311.719 155.305 312.685 153.972 313.019C154.372 317.019 154.472 320.019 154.472 321.019C154.072 324.219 151.305 328.019 149.972 329.519L150.472 346.019C153.672 350.819 160.805 353.685 163.972 354.519C159.172 357.319 153.305 356.019 150.972 355.019V365.519C151.372 367.119 156.138 368.519 158.472 369.019C162.072 371.819 162.638 374.519 162.472 375.519C157.672 375.519 150.805 373.519 147.972 372.519C144.772 374.119 136.638 374.852 132.972 375.019C126.572 373.019 118.638 374.519 115.472 375.519C118.472 371.019 118.972 371.519 118.972 370.519C119.772 369.319 126.638 369.019 129.972 369.019C134.372 369.819 140.472 367.019 142.972 365.519L138.472 331.019C132.072 327.819 129.472 320.352 128.972 317.019C124.572 311.419 111.805 301.019 105.972 296.519C107.572 300.519 115.972 311.852 119.972 317.019C120.772 318.619 120.305 323.685 119.972 326.019L113.972 327.019C113.172 327.019 112.638 329.685 112.472 331.019L108.972 331.519C106.972 332.319 104.805 334.185 103.972 335.019C101.172 335.819 99.1383 341.685 98.4717 344.519C98.8717 347.319 103.972 352.352 106.472 354.519C102.072 354.519 97.9717 352.519 96.4717 351.519C93.2717 351.919 93.1383 358.019 93.4717 361.019C94.6717 363.819 99.6383 365.185 101.972 365.519C103.572 367.519 103.638 370.352 103.472 371.519C100.272 369.119 94.4717 368.852 91.9717 369.019C90.7717 367.819 87.1383 368.519 85.4717 369.019C79.8717 371.819 68.805 371.185 63.9717 370.519C59.9717 369.319 54.305 371.019 51.9717 372.019C53.9717 368.819 57.4717 366.352 58.9717 365.519C64.5717 364.319 71.6383 364.019 74.4717 364.019L85.4717 361.019L93.4717 333.019C89.8717 330.619 89.305 327.352 89.4717 326.019C90.6717 323.619 89.9717 316.685 89.4717 313.519C89.0717 309.919 79.305 304.019 74.4717 301.519C67.2717 297.919 64.4717 289.685 63.9717 286.019C62.7717 285.619 62.4717 288.852 62.4717 290.519C58.8717 284.919 57.6383 272.185 57.4717 266.519C29.4717 237.719 17.1383 220.185 14.4717 215.019C5.67168 198.219 8.80501 177.685 11.4717 169.519C7.47168 169.919 4.13833 180.352 2.97165 185.519C-1.02835 170.319 1.97165 159.852 3.97165 156.519C9.57165 145.319 21.6383 127.852 26.9716 120.519C36.5716 104.919 43.305 88.3519 45.4716 82.0186C49.0716 73.6186 44.9716 62.1852 42.4716 57.5186C43.6716 69.5186 41.9716 78.1852 40.9716 81.0186C34.1716 90.6186 29.5 90 26.9716 89.5186C20.1716 87.5186 17.5 78 17.9716 73.5186C20.7716 63.9186 25.805 54.5186 27.9716 51.0186L11.9717 50.0186C17.9716 38.0186 29.1383 34.6852 33.9716 34.5185C27.5716 19.3185 37.6383 9.18521 43.4716 6.01855C46.2716 6.81855 50.3049 11.6852 51.9716 14.0186C54.3716 6.81856 57.6383 2.35189 58.9716 1.01856C60.9716 4.61856 62.1383 6.85189 62.4716 7.51855C66.0716 15.1185 70.3049 15.0186 71.9716 14.0186C77.5716 3.00989 79.9716 0.764946 80.4716 1.01856C83.2716 3.01856 82.877 6 82.9716 7.51855C83.5 16 87 17.5 88 18C93 20.5 101.472 7.51855 103.472 7.51855C107.472 5.51855 109.472 8.35188 109.972 10.0185C109.972 12.4186 105.638 15.6852 103.472 17.0185C98.2716 21.0185 97.9716 26.3519 98.4716 28.5185C100.072 30.9185 114.138 29.5185 120.972 28.5185C125.372 30.1185 122.805 33.1852 120.972 34.5185C110.172 37.7185 109.138 42.1852 109.972 44.0186C110.772 46.0186 115.638 51.1852 117.972 53.5186C121.172 63.5186 112.305 67.3519 107.472 68.0185C94.6716 67.2185 89.1383 59.0186 87.9716 55.0186C79.5716 33.8186 71.4716 28.5185 68.4716 28.5185C63.6716 26.9185 57.4716 27.8519 54.9716 28.5185C62.9716 29.3185 69.6383 32.8519 71.9716 34.5185C78.3716 38.5185 83.3049 53.5185 84.9716 60.5185C90.5716 71.7185 96.3049 96.8519 98.4716 108.019C103.272 127.619 96.4716 146.519 92.4716 153.519C96.0716 152.319 99.3049 145.685 100.472 142.519C100.472 158.919 106.805 170.685 109.972 174.519C119.172 186.119 136.138 184.019 143.472 181.519C161.072 181.919 191.805 117.352 204.972 85.0185C208.972 76.2185 226.638 65.0185 234.972 60.5185C266.972 46.5185 298.305 63.3519 309.972 73.5185C335.972 109.119 337.472 143.352 334.972 156.019Z" fill="black" stroke="black"/>
</svg>
